# 3ds Max Wavefront OBJ Exporter v0.97b - (c)2007 guruware
# 创建的文件:29.05.2019 11:13:29

mtllib box.mtl

#
# object Box001
#

v  -4.5507 0.0000 15.9007
v  4.5507 0.0000 15.9007
v  4.5507 0.0000 -15.9007
v  -4.5507 0.0000 -15.9007
v  4.5507 -1.1977 -15.9007
v  4.5507 -1.1977 15.9007
v  -4.5507 -1.1977 15.9007
v  -4.5507 -1.1977 -15.9007
# 8 vertices

vn -0.5774 0.5774 0.5774
vn 0.5774 0.5774 0.5774
vn 0.5774 0.5774 -0.5774
vn -0.5774 0.5774 -0.5774
vn 0.5774 -0.5774 -0.5774
vn 0.5774 -0.5774 0.5774
vn -0.5774 -0.5774 0.5774
vn -0.5774 -0.5774 -0.5774
# 8 vertex normals

vt 1.0000 1.0000 0.0000
vt 0.0000 1.0000 0.0000
vt 0.0000 0.0000 0.0000
vt 1.0000 0.0000 0.0000
# 4 texture coords

o Box001
g Box001
usemtl wire_177028149
s 2
f 1/1/1 2/2/2 3/3/3 4/4/4 
s 4
f 5/4/5 6/1/6 7/2/7 8/3/8 
s 8
f 3/4/3 5/1/5 8/2/8 4/3/4 
s 16
f 2/4/2 6/1/6 5/2/5 3/3/3 
s 32
f 1/4/1 7/1/7 6/2/6 2/3/2 
s 64
f 4/4/4 8/1/8 7/2/7 1/3/1 
# 6 polygons

