# 3ds Max Wavefront OBJ Exporter v0.97b - (c)2007 guruware
# File Created: 10.05.2019 09:45:18

mtllib Corn.mtl

#
# object Corn2
#

v  -0.5360 0.6383 0.3733
v  -0.5177 0.2568 3.6334
v  0.3615 0.3756 3.6535
v  -0.1938 0.5958 0.3749
v  -0.7877 0.8469 0.3733
v  -1.4756 0.6574 3.4896
v  -1.6039 -0.3524 6.9663
v  -1.0484 -0.2646 6.9357
v  -2.0655 -0.6279 6.8256
v  -1.6860 -0.8058 5.7463
v  -0.5668 0.6046 0.3679
v  -0.2320 0.5594 0.3695
v  0.3202 0.3634 3.6809
v  -0.5357 0.2484 3.6615
v  -0.8124 0.8081 0.3679
v  -1.4703 0.6342 3.5231
v  -1.0466 -0.2535 6.8408
v  -1.5814 -0.3380 6.8703
v  -2.0258 -0.6033 6.7348
v  -1.6605 -0.7746 5.6957
v  -0.3612 1.1276 0.3032
v  -0.3248 0.3943 0.3730
v  -1.7807 0.4182 2.7009
v  -1.3023 0.7645 2.6630
v  -2.6117 0.9129 4.4110
v  -2.4555 1.3292 4.2220
v  -1.5867 -0.2808 2.7467
v  -0.3347 0.3927 0.3730
v  0.4238 0.1194 0.4762
v  -2.9680 0.6201 4.4449
v  -0.1726 1.2326 2.9399
v  -0.3190 0.9792 2.9399
v  -0.5065 0.8709 0.3294
v  -0.3602 1.1243 0.3294
v  -0.2482 0.6821 2.9399
v  -0.3602 0.6175 0.3294
v  -0.2031 1.1664 7.3917
v  -0.6294 0.8000 7.3917
v  -0.8942 0.0424 7.2728
v  1.7338 1.0955 6.9766
v  0.9442 1.3933 5.5308
v  0.3868 0.7147 5.5308
v  1.1782 0.3283 6.9766
v  -0.2199 0.0511 5.5308
v  0.5275 -0.4374 6.9766
v  0.8107 -0.8665 2.7439
v  0.6650 -0.4740 2.8364
v  -0.3535 0.6907 0.3031
v  -0.1794 0.4679 0.2277
v  0.2629 0.0088 3.0593
v  -0.6261 0.8942 0.3959
v  -2.3892 1.8254 9.8045
v  -3.1139 1.3901 3.5109
v  3.1187 -1.8254 8.7863
v  2.7228 0.5939 3.9886
v  -0.2933 1.0806 0.3294
v  -0.4571 0.8936 0.3294
v  -0.7674 0.8105 0.3294
v  -0.1888 1.2214 3.0044
v  -0.3693 1.1172 0.3451
v  -0.5102 0.8732 0.3451
v  -0.3297 0.9774 3.0044
v  -0.3693 0.6292 0.3451
v  -0.2615 0.6914 3.0044
v  -0.2181 1.1576 7.2903
v  -0.6285 0.8049 7.2903
v  -0.8835 0.0755 7.1758
v  1.6983 1.0705 6.9205
v  1.1634 0.3319 6.9205
v  0.4015 0.7039 5.5286
v  0.9382 1.3572 5.5286
v  0.5370 -0.4053 6.9205
v  -0.1825 0.0650 5.5286
v  0.8037 -0.8352 2.7272
v  -0.1495 0.4579 0.3048
v  -0.3170 0.6724 0.3774
v  0.6635 -0.4609 2.8163
v  -0.5795 0.8778 0.4667
v  0.2764 -0.0024 3.0309
v  -2.3228 1.7921 9.6132
v  3.0316 -1.7416 8.6628
v  2.6447 0.5792 3.9256
v  -0.2610 1.0451 0.3294
v  -0.4172 0.8683 0.3294
v  -0.7159 0.7885 0.3294
v  -0.3790 1.1541 0.3140
v  -1.3041 0.7938 2.6684
v  -1.7717 0.4179 2.7068
v  -0.3382 0.4225 0.3731
v  -2.4469 1.3510 4.2045
v  -2.6041 0.9386 4.3918
v  -1.5854 -0.2444 2.7513
v  0.4262 0.1504 0.4765
v  -0.3343 0.4210 0.3731
v  -2.9618 0.6493 4.4253
v  -3.1187 1.4113 3.5068
v  -0.3026 0.3006 0.4845
v  -0.9111 0.5844 0.4845
v  -1.1302 0.1175 0.2901
v  -0.5217 -0.1663 0.2901
v  -0.1418 0.6478 0.3822
v  -0.7503 0.9316 0.3822
v  -0.0838 0.9603 0.4311
v  -0.3675 0.3518 0.4311
v  0.0994 0.1327 0.2367
v  0.3831 0.7412 0.2367
v  -0.4310 1.1211 0.3278
v  -0.7147 0.5126 0.3278
v  -0.4476 1.3535 0.5039
v  0.1609 1.0697 0.5039
v  0.3800 1.5366 0.3095
v  -0.2285 1.8204 0.3095
v  -0.6084 1.0063 0.4016
v  0.0001 0.7225 0.4016
v  -0.8957 0.5324 0.4682
v  -0.6660 1.1633 0.4682
v  -1.1502 1.3409 0.2738
v  -1.3799 0.7100 0.2738
v  -0.5358 0.4025 0.3649
v  -0.3061 1.0334 0.3649
v  -0.6510 1.2214 0.1861
v  -0.8504 0.8396 0.1861
v  -0.6291 0.8518 0.3676
v  -0.5380 1.0398 0.3676
v  -0.6219 0.4699 0.1848
v  -0.5179 0.6636 0.3642
v  -0.1887 0.4816 0.1861
v  -0.3023 0.6627 0.3676
v  0.0160 0.8667 0.1861
v  -0.1980 0.8590 0.3676
v  -0.2151 1.2366 0.1861
v  -0.3158 1.0475 0.3676
v  -0.6964 1.2932 0.0048
v  -0.9410 0.8330 0.0048
v  -0.6649 0.3910 0.0048
v  -0.1440 0.4092 0.0048
v  0.1007 0.8694 0.0048
v  -0.1755 1.3114 0.0048
v  -0.6444 1.2110 0.1861
v  -0.5346 1.0345 0.3625
v  -0.6231 0.8518 0.3625
v  -0.8382 0.8400 0.1861
v  -0.5151 0.6690 0.3592
v  -0.6162 0.4807 0.1848
v  -0.3056 0.6680 0.3625
v  -0.1952 0.4921 0.1861
v  -0.2042 0.8588 0.3625
v  0.0038 0.8663 0.1861
v  -0.3187 1.0420 0.3625
v  -0.2208 1.2258 0.1861
v  -0.6885 1.2808 0.0099
v  -0.9263 0.8336 0.0099
v  -0.6579 0.4041 0.0099
v  -0.1517 0.4217 0.0099
v  0.0861 0.8689 0.0099
v  -0.1823 1.2985 0.0099
v  -0.3026 0.3006 0.4802
v  -0.5217 -0.1663 0.2858
v  -1.1302 0.1175 0.2858
v  -0.9111 0.5844 0.4802
v  -0.1418 0.6478 0.3779
v  -0.7503 0.9316 0.3779
v  -0.0838 0.9603 0.4268
v  0.3831 0.7412 0.2324
v  0.0994 0.1327 0.2324
v  -0.3675 0.3518 0.4268
v  -0.4310 1.1211 0.3235
v  -0.7147 0.5126 0.3235
v  -0.4476 1.3535 0.4996
v  -0.2285 1.8204 0.3052
v  0.3800 1.5366 0.3052
v  0.1609 1.0697 0.4996
v  -0.6084 1.0063 0.3973
v  0.0001 0.7225 0.3973
v  -0.8957 0.5324 0.4639
v  -1.3799 0.7100 0.2695
v  -1.1502 1.3409 0.2695
v  -0.6660 1.1633 0.4639
v  -0.5358 0.4025 0.3606
v  -0.3061 1.0334 0.3606
# 180 vertices

vn 0.4032 0.9092 0.1041
vn 0.0884 0.9828 0.1619
vn -0.1356 0.9847 0.1093
vn 0.1230 0.9914 0.0457
vn 0.6272 0.7567 0.1844
vn 0.3387 0.9037 0.2619
vn -0.2805 0.1349 0.9503
vn -0.1024 0.8361 0.5389
vn -0.1656 -0.2141 0.9627
vn 0.3038 -0.8995 0.3139
vn -0.4083 -0.9080 -0.0943
vn -0.1337 -0.9904 -0.0363
vn 0.1347 -0.9853 -0.1049
vn -0.0871 -0.9837 -0.1574
vn -0.6284 -0.7585 -0.1728
vn -0.3361 -0.9063 -0.2560
vn 0.1026 -0.8368 -0.5378
vn 0.2805 -0.1349 -0.9503
vn 0.1673 0.2114 -0.9630
vn -0.3038 0.8995 -0.3139
vn -0.9213 -0.0819 -0.3800
vn -0.8447 -0.0922 -0.5273
vn -0.5520 0.7157 -0.4278
vn -0.5744 0.7601 -0.3038
vn -0.3847 -0.2581 -0.8862
vn -0.1815 -0.3493 -0.9193
vn -0.7517 -0.2487 -0.6109
vn -0.8213 -0.2612 -0.5073
vn -0.3112 -0.9326 -0.1831
vn -0.2648 -0.8820 -0.3899
vn -0.2341 -0.0759 -0.9693
vn -0.5852 0.6575 -0.4746
vn -0.8120 -0.2596 -0.5228
vn 0.8658 -0.4999 -0.0211
vn 0.9877 -0.1564 -0.0009
vn 0.9973 0.0126 -0.0722
vn 0.8653 -0.4996 -0.0414
vn 0.9705 0.2312 0.0681
vn 0.8650 0.4994 -0.0495
vn 0.6259 -0.7282 0.2794
vn 0.7428 -0.5436 0.3909
vn 0.8709 -0.3574 0.3372
vn -0.6043 0.4376 0.6659
vn -0.7271 0.5972 0.3388
vn -0.7124 0.6179 0.3326
vn -0.5630 0.4392 0.7001
vn -0.6913 0.6320 0.3503
vn -0.5523 0.4693 0.6891
vn -0.7027 -0.3995 0.5888
vn -0.6294 -0.5286 0.5697
vn -0.6919 -0.7201 -0.0529
vn -0.7903 -0.6125 -0.0138
vn -0.5824 -0.6862 0.4358
vn -0.6099 -0.7903 -0.0591
vn 0.6188 -0.4512 0.6431
vn 0.6110 -0.5057 -0.6090
vn 0.4710 -0.6432 -0.6037
vn -0.4200 0.3315 0.8448
vn -0.2403 -0.4595 0.8551
vn -0.7450 0.6527 0.1380
vn -0.5058 0.8554 0.1115
vn -0.2551 0.9526 0.1659
vn -0.8659 0.4999 0.0200
vn -0.8654 0.4996 0.0392
vn -0.9976 -0.0121 0.0682
vn -0.9878 0.1560 -0.0008
vn -0.8651 -0.4994 0.0468
vn -0.9704 -0.2312 -0.0694
vn -0.6259 0.7282 -0.2794
vn -0.7428 0.5436 -0.3909
vn -0.8709 0.3574 -0.3372
vn 0.6043 -0.4376 -0.6659
vn 0.5630 -0.4392 -0.7001
vn 0.7131 -0.6185 -0.3301
vn 0.7278 -0.5977 -0.3362
vn 0.5523 -0.4693 -0.6891
vn 0.6922 -0.6328 -0.3470
vn 0.7014 0.4028 -0.5881
vn 0.7906 0.6121 0.0156
vn 0.7004 0.7120 0.0493
vn 0.6273 0.5326 -0.5682
vn 0.6273 0.7767 0.0572
vn 0.5802 0.6914 -0.4305
vn -0.6188 0.4512 -0.6431
vn 0.4200 -0.3315 -0.8448
vn 0.2360 0.4621 -0.8548
vn 0.7426 -0.6566 -0.1318
vn 0.5044 -0.8569 -0.1065
vn 0.2550 -0.9538 -0.1589
vn 0.9233 0.0818 0.3753
vn 0.6091 -0.7246 0.3224
vn 0.5837 -0.6808 0.4425
vn 0.8486 0.0894 0.5214
vn 0.1928 0.3438 0.9190
vn 0.3826 0.2571 0.8874
vn 0.7502 0.2522 0.6112
vn 0.2624 0.8846 0.3855
vn 0.3061 0.9329 0.1898
vn 0.8209 0.2650 0.5060
vn 0.2196 0.0778 0.9725
vn 0.8094 0.2630 0.5251
vn 0.5763 -0.6560 0.4874
vn -0.5977 0.5091 0.6194
vn -0.4620 0.6422 0.6116
vn -0.0210 -0.0450 0.9988
vn -0.0209 -0.0449 0.9988
vn -0.1491 -0.3197 0.9357
vn 0.1092 0.2341 0.9661
vn 0.0439 -0.0205 0.9988
vn 0.0438 -0.0204 0.9988
vn 0.3197 -0.1491 0.9357
vn -0.2362 0.1101 0.9655
vn 0.0210 0.0450 0.9988
vn 0.0209 0.0449 0.9988
vn 0.1491 0.3197 0.9357
vn -0.1092 -0.2341 0.9661
vn -0.0455 0.0166 0.9988
vn -0.0455 0.0165 0.9988
vn -0.3314 0.1206 0.9357
vn 0.2449 -0.0891 0.9655
vn -0.4354 0.6919 0.5760
vn -0.8041 -0.0272 0.5939
vn -0.6330 -0.0282 0.7736
vn -0.3577 0.5394 0.7623
vn -0.3822 -0.7086 0.5931
vn -0.3205 -0.5454 0.7745
vn 0.4300 -0.6950 0.5762
vn 0.3231 -0.5612 0.7620
vn 0.8171 0.0289 0.5758
vn 0.6462 0.0223 0.7628
vn 0.3841 0.7219 0.5757
vn 0.3034 0.5709 0.7629
vn -0.4803 0.7677 0.4243
vn -0.8934 -0.0352 0.4479
vn -0.4210 -0.7896 0.4464
vn 0.4793 -0.7680 0.4248
vn 0.9055 0.0313 0.4232
vn 0.4253 0.8002 0.4229
vn 0.4354 -0.6919 -0.5760
vn 0.3577 -0.5394 -0.7623
vn 0.6330 0.0282 -0.7736
vn 0.8041 0.0272 -0.5939
vn 0.3206 0.5454 -0.7745
vn 0.3822 0.7086 -0.5932
vn -0.3231 0.5612 -0.7620
vn -0.4300 0.6950 -0.5762
vn -0.6462 -0.0223 -0.7628
vn -0.8171 -0.0289 -0.5758
vn -0.3033 -0.5709 -0.7629
vn -0.3840 -0.7219 -0.5757
vn 0.4803 -0.7677 -0.4243
vn 0.8934 0.0352 -0.4479
vn 0.4210 0.7896 -0.4464
vn -0.4793 0.7680 -0.4248
vn -0.9055 -0.0313 -0.4232
vn -0.4253 -0.8002 -0.4229
vn 0.0210 0.0450 -0.9988
vn 0.1491 0.3197 -0.9357
vn 0.0209 0.0449 -0.9988
vn -0.1092 -0.2341 -0.9661
vn -0.0439 0.0205 -0.9988
vn -0.3197 0.1491 -0.9357
vn -0.0438 0.0204 -0.9988
vn 0.2362 -0.1101 -0.9655
vn -0.0210 -0.0450 -0.9988
vn -0.1491 -0.3197 -0.9357
vn -0.0209 -0.0449 -0.9988
vn 0.1092 0.2341 -0.9661
vn 0.0455 -0.0166 -0.9988
vn 0.3314 -0.1206 -0.9357
vn 0.0455 -0.0165 -0.9988
vn -0.2449 0.0891 -0.9655
# 172 vertex normals

vt 5.5599 -0.0007 0.0000
vt 5.5579 0.1976 0.0000
vt 5.4977 0.2133 0.0000
vt 5.4950 0.0092 0.0000
vt 5.6208 0.0018 0.0000
vt 5.6691 0.1907 0.0000
vt 5.5545 0.3790 0.0000
vt 5.4982 0.3824 0.0000
vt 5.6125 0.3780 0.0000
vt 5.5363 0.5652 0.0000
vt 4.6009 -0.0006 0.0000
vt 4.5442 -0.0006 0.0000
vt 4.5687 0.1950 0.0000
vt 4.6382 0.2059 0.0000
vt 4.5396 0.4101 0.0000
vt 4.6021 0.4078 0.0000
vt 4.5004 0.2036 0.0000
vt 4.5687 0.1952 0.0000
vt 4.5443 -0.0006 0.0000
vt 4.4736 -0.0006 0.0000
vt 4.4920 0.4156 0.0000
vt 4.5396 0.4103 0.0000
vt 5.5025 1.1592 0.0000
vt 5.5746 1.1609 0.0000
vt 5.5585 1.0045 0.0000
vt 5.5055 1.0045 0.0000
vt 5.6360 1.1569 0.0000
vt 5.6156 1.0045 0.0000
vt 5.4996 1.4619 0.0000
vt 5.5393 1.4636 0.0000
vt 5.6126 1.4376 0.0000
vt 3.4890 0.3645 0.0000
vt 3.4883 0.2708 0.0000
vt 3.5343 0.2747 0.0000
vt 3.5350 0.3713 0.0000
vt 3.6041 0.2753 0.0000
vt 3.6221 0.3704 0.0000
vt 6.6216 1.3764 0.0000
vt 6.5607 1.3804 0.0000
vt 6.5811 1.0045 0.0000
vt 6.6312 1.0045 0.0000
vt 6.4708 1.3802 0.0000
vt 6.4891 1.0045 0.0000
vt 5.5335 1.5650 0.0000
vt 4.5332 0.5610 0.0000
vt 4.5333 0.5611 0.0000
vt 3.5264 0.5626 0.0000
vt 6.5333 1.5702 0.0000
vt 3.5010 -0.0007 0.0000
vt 3.5612 -0.0007 0.0000
vt 3.6228 -0.0007 0.0000
vt 0.8474 0.6839 0.0000
vt 0.9979 0.6839 0.0000
vt 0.9979 0.8096 0.0000
vt 0.8474 0.8096 0.0000
vt 0.8474 0.5582 0.0000
vt 0.9979 0.5582 0.0000
vt 0.8015 0.9523 0.0000
vt 0.9007 0.9523 0.0000
vt 0.8748 0.9074 0.0000
vt 0.8274 0.9074 0.0000
vt 0.9503 0.8664 0.0000
vt 0.8985 0.8664 0.0000
vt 0.7519 0.8664 0.0000
vt 0.8037 0.8664 0.0000
vt 0.7756 0.9971 0.0000
vt 0.9266 0.9971 0.0000
vt 1.0021 0.8664 0.0000
vt 0.7001 0.8664 0.0000
# 69 texture coords

o Corn2
g Corn2
usemtl 01___Default
s 1
f 1/1/1 2/2/2 3/3/3 4/4/4 
f 5/5/5 6/6/6 2/2/2 1/1/1 
f 2/2/2 7/7/7 8/8/8 3/3/3 
f 6/6/6 9/9/9 7/7/7 2/2/2 
f 7/7/7 10/10/10 8/8/8 
f 9/9/9 10/10/10 7/7/7 
f 11/1/11 12/4/12 13/3/13 14/2/14 
f 15/5/15 11/1/11 14/2/14 16/6/16 
f 14/2/14 13/3/13 17/8/17 18/7/18 
f 16/6/16 14/2/14 18/7/18 19/9/19 
f 18/7/18 17/8/17 20/10/20 
f 19/9/19 18/7/18 20/10/20 
f 21/11/21 22/12/22 23/13/23 24/14/24 
f 23/13/23 25/15/25 26/16/26 24/14/24 
f 27/17/27 23/18/28 28/19/29 29/20/30 
f 30/21/31 25/22/32 23/18/32 
f 23/18/33 27/17/27 30/21/31 
f 31/23/34 32/24/35 33/25/36 34/26/37 
f 32/24/35 35/27/38 36/28/39 33/25/36 
f 37/29/40 38/30/41 32/24/35 31/23/34 
f 38/30/41 39/31/42 35/27/38 32/24/35 
f 40/32/43 41/33/44 42/34/45 43/35/46 
f 42/34/45 44/36/47 45/37/48 43/35/46 
f 46/38/49 47/39/50 48/40/51 49/41/52 
f 47/39/50 50/42/53 51/43/54 48/40/51 
f 37/29/40 52/44/55 38/30/41 
f 38/30/41 52/44/55 39/31/42 
f 25/15/25 53/45/56 26/16/26 
f 53/46/57 25/22/57 30/21/31 
f 43/35/46 54/47/58 40/32/43 
f 45/37/48 54/47/58 43/35/46 
f 46/38/49 55/48/59 47/39/50 
f 47/39/50 55/48/59 50/42/53 
f 56/49/60 57/50/61 42/34/45 41/33/44 
f 57/50/61 58/51/62 44/36/47 42/34/45 
f 59/23/63 60/26/64 61/25/65 62/24/66 
f 62/24/66 61/25/65 63/28/67 64/27/68 
f 65/29/69 59/23/63 62/24/66 66/30/70 
f 66/30/70 62/24/66 64/27/68 67/31/71 
f 68/32/72 69/35/73 70/34/74 71/33/75 
f 70/34/74 69/35/73 72/37/76 73/36/77 
f 74/38/78 75/41/79 76/40/80 77/39/81 
f 77/39/81 76/40/80 78/43/82 79/42/83 
f 65/29/69 66/30/70 80/44/84 
f 66/30/70 67/31/71 80/44/84 
f 69/35/73 68/32/72 81/47/85 
f 72/37/76 69/35/73 81/47/85 
f 74/38/78 77/39/81 82/48/86 
f 77/39/81 79/42/83 82/48/86 
f 83/49/87 71/33/75 70/34/74 84/50/88 
f 84/50/88 70/34/74 73/36/77 85/51/89 
f 86/11/90 87/14/91 88/13/92 89/12/93 
f 88/13/92 87/14/91 90/16/94 91/15/95 
f 92/17/96 93/20/97 94/19/98 88/18/99 
f 95/21/100 92/17/96 88/18/101 
f 88/18/102 91/22/102 95/21/100 
f 91/15/95 90/16/94 96/45/103 
f 96/46/104 95/21/100 91/22/104 
f 97/52/105 98/53/106 99/54/107 100/55/107 
f 101/56/108 102/57/108 98/53/106 97/52/105 
f 103/52/109 104/53/110 105/54/111 106/55/111 
f 107/56/112 108/57/112 104/53/110 103/52/109 
f 109/52/113 110/53/114 111/54/115 112/55/115 
f 113/56/116 114/57/116 110/53/114 109/52/113 
f 115/52/117 116/53/118 117/54/119 118/55/119 
f 119/56/120 120/57/120 116/53/118 115/52/117 
f 121/58/121 122/59/122 123/60/123 124/61/124 
f 122/59/122 125/62/125 126/63/126 123/60/123 
f 125/62/125 127/59/127 128/60/128 126/63/126 
f 127/59/127 129/58/129 130/61/130 128/60/128 
f 129/58/129 131/64/131 132/65/132 130/61/130 
f 131/64/131 121/58/121 124/61/124 132/65/132 
f 133/66/133 134/67/134 122/59/122 121/58/121 
f 134/67/134 135/68/135 125/62/125 122/59/122 
f 125/62/125 135/68/135 136/67/136 127/59/127 
f 129/58/129 127/59/127 136/67/136 137/66/137 
f 137/66/137 138/69/138 131/64/131 129/58/129 
f 138/69/138 133/66/133 121/58/121 131/64/131 
f 139/58/139 140/61/140 141/60/141 142/59/142 
f 142/59/142 141/60/141 143/63/143 144/62/144 
f 144/62/144 143/63/143 145/60/145 146/59/146 
f 146/59/146 145/60/145 147/61/147 148/58/148 
f 148/58/148 147/61/147 149/65/149 150/64/150 
f 150/64/150 149/65/149 140/61/140 139/58/139 
f 151/66/151 139/58/139 142/59/142 152/67/152 
f 152/67/152 142/59/142 144/62/144 153/68/153 
f 153/68/153 144/62/144 146/59/146 154/67/154 
f 154/67/154 146/59/146 148/58/148 155/66/155 
f 155/66/155 148/58/148 150/64/150 156/69/156 
f 156/69/156 150/64/150 139/58/139 151/66/151 
f 157/52/157 158/55/158 159/54/158 160/53/159 
f 161/56/160 157/52/157 160/53/159 162/57/160 
f 163/52/161 164/55/162 165/54/162 166/53/163 
f 167/56/164 163/52/161 166/53/163 168/57/164 
f 169/52/165 170/55/166 171/54/166 172/53/167 
f 173/56/168 169/52/165 172/53/167 174/57/168 
f 175/52/169 176/55/170 177/54/170 178/53/171 
f 179/56/172 175/52/169 178/53/171 180/57/172 
# 74 polygons - 24 triangles

