# 3ds Max Wavefront OBJ Exporter v0.97b - (c)2007 guruware
# File Created: 09.05.2019 18:21:03

mtllib Corn.mtl

#
# object Corn1
#

v  -0.2199 0.1708 0.4244
v  -0.2900 0.1006 4.1798
v  0.3168 0.4753 4.4100
v  0.1857 0.4050 0.4244
v  -0.6256 0.3405 0.4244
v  -0.8968 0.4107 3.9496
v  -0.2199 1.0139 0.4244
v  -0.2199 1.0139 6.1941
v  -0.6256 0.7797 6.1941
v  -0.6256 0.7797 0.4244
v  -0.8809 0.3113 6.1269
v  -0.6256 0.3113 0.4244
v  0.1857 0.7939 0.4244
v  0.2354 0.8226 4.1022
v  -0.3194 1.1429 4.1022
v  -0.2199 1.0281 0.4244
v  0.1857 0.3255 0.4244
v  0.2354 0.1819 4.1022
v  -2.3634 -2.1370 8.4298
v  -1.5538 -1.3466 7.2083
v  -2.2271 2.1370 10.0560
v  2.3634 1.0030 7.9198
v  -0.2328 0.0980 0.4246
v  0.1577 0.3235 0.4246
v  0.2839 0.3912 4.3833
v  0.1631 0.3226 3.4572
v  -0.3003 0.0304 4.1617
v  -0.6234 0.3235 0.4246
v  -0.6196 0.2451 3.3673
v  -0.8845 0.3912 3.9401
v  -0.2417 1.0106 0.4247
v  -0.6322 0.7851 0.4247
v  -0.6322 0.7851 6.1521
v  -0.2417 1.0106 6.1521
v  -0.6322 0.3341 0.4247
v  -0.8781 0.3341 6.0875
v  0.1943 0.7933 0.4246
v  -0.1962 1.0187 0.4246
v  -0.2919 1.1293 4.0827
v  0.2422 0.8209 4.0826
v  0.1943 0.3423 0.4246
v  0.2422 0.2041 4.0827
v  -2.2964 -2.0616 8.2533
v  -2.1741 2.0918 9.8701
v  2.2909 0.9946 7.7580
v  -0.2839 1.4209 0.3466
v  -1.0359 0.9794 0.3466
v  -0.6429 0.7628 0.6360
v  -0.2848 0.9879 0.6360
v  -1.0403 0.0995 0.3444
v  -0.6539 0.3205 0.6305
v  -0.2839 -0.3453 0.3466
v  -0.2848 0.0875 0.6360
v  0.4809 0.0963 0.3466
v  0.1051 0.3126 0.6360
v  0.4809 0.9794 0.3466
v  0.1051 0.7628 0.6359
v  -0.2848 1.5930 0.0575
v  -1.1987 1.0654 0.0575
v  -1.1987 0.0100 0.0575
v  -0.2848 -0.5176 0.0575
v  0.6292 0.0100 0.0575
v  0.6292 1.0654 0.0575
v  -0.2838 1.3961 0.3466
v  -0.2846 0.9752 0.6278
v  -0.6327 0.7565 0.6278
v  -1.0146 0.9669 0.3466
v  -0.6433 0.3266 0.6225
v  -1.0189 0.1118 0.3445
v  -0.2846 0.1002 0.6278
v  -0.2838 -0.3203 0.3466
v  0.0943 0.3190 0.6278
v  0.4594 0.1088 0.3466
v  0.0943 0.7565 0.6278
v  0.4594 0.9669 0.3466
v  -0.2846 1.5633 0.0656
v  -1.1728 1.0505 0.0656
v  -1.1728 0.0249 0.0656
v  -0.2846 -0.4878 0.0656
v  0.6035 0.0249 0.0656
v  0.6035 1.0505 0.0656
# 81 vertices

vn -0.0694 0.9974 0.0174
vn -0.1890 0.9590 0.2111
vn -0.5447 0.8351 0.0764
vn -0.5000 0.8660 0.0012
vn 0.3857 0.9225 0.0113
vn 0.3657 0.8978 0.2454
vn 0.5000 -0.8660 0.0000
vn 0.4886 -0.8462 0.2127
vn 0.6750 -0.6884 0.2657
vn 0.8660 -0.5000 0.0000
vn 0.8400 -0.4910 0.2308
vn 0.9990 0.0000 0.0447
vn -0.8659 -0.4999 0.0156
vn -0.8171 -0.5200 0.2489
vn -0.4956 -0.8584 0.1320
vn -0.5000 -0.8659 0.0135
vn -0.9999 -0.0000 0.0135
vn -0.9693 0.0000 0.2458
vn -0.1876 0.9039 0.3844
vn -0.5610 0.8133 0.1545
vn 0.6167 -0.6269 0.4761
vn -0.7778 -0.4344 0.4541
vn 0.0075 -0.9999 -0.0151
vn 0.5000 -0.8660 -0.0011
vn 0.5428 -0.8367 -0.0733
vn 0.9867 0.0899 -0.1354
vn 0.1534 -0.9644 -0.2155
vn -0.5009 -0.8652 -0.0224
vn -0.5192 -0.8544 -0.0221
vn -0.4386 -0.8634 -0.2493
vn -0.5000 0.8660 0.0000
vn -0.8660 0.5000 0.0000
vn -0.6749 0.6884 -0.2657
vn -0.4886 0.8462 -0.2127
vn -0.9991 0.0000 -0.0434
vn -0.8402 0.4910 -0.2301
vn 0.8659 0.4999 -0.0151
vn 0.5000 0.8660 -0.0131
vn 0.4956 0.8585 -0.1317
vn 0.8171 0.5201 -0.2487
vn 0.9999 0.0000 -0.0131
vn 0.9694 -0.0000 -0.2454
vn 0.1440 -0.9078 -0.3939
vn -0.6167 0.6270 -0.4761
vn 0.7778 0.4344 -0.4541
vn -0.0024 0.7562 0.6543
vn -0.6402 0.3718 0.6723
vn -0.4719 0.2664 0.8404
vn -0.0157 0.5555 0.8314
vn -0.6439 -0.3668 0.6715
vn -0.4799 -0.2495 0.8411
vn -0.0033 -0.7559 0.6546
vn -0.0214 -0.5557 0.8311
vn 0.6553 -0.3778 0.6541
vn 0.4806 -0.2778 0.8318
vn 0.6553 0.3780 0.6540
vn 0.4805 0.2776 0.8319
vn -0.0006 0.8593 0.5114
vn -0.7328 0.4181 0.5368
vn -0.7321 -0.4214 0.5353
vn -0.0006 -0.8590 0.5120
vn 0.7446 -0.4303 0.5102
vn 0.7449 0.4303 0.5099
vn 0.0024 -0.7562 -0.6543
vn 0.0157 -0.5555 -0.8314
vn 0.4719 -0.2664 -0.8404
vn 0.6402 -0.3718 -0.6723
vn 0.4799 0.2495 -0.8411
vn 0.6439 0.3668 -0.6715
vn 0.0214 0.5557 -0.8311
vn 0.0033 0.7559 -0.6546
vn -0.4806 0.2778 -0.8318
vn -0.6553 0.3778 -0.6541
vn -0.4805 -0.2776 -0.8319
vn -0.6552 -0.3780 -0.6540
vn 0.0006 -0.8593 -0.5114
vn 0.7328 -0.4181 -0.5369
vn 0.7321 0.4214 -0.5353
vn 0.0006 0.8590 -0.5120
vn -0.7446 0.4303 -0.5102
vn -0.7449 -0.4303 -0.5100
# 81 vertex normals

vt 3.5546 1.0050 0.0000
vt 3.5685 1.2890 0.0000
vt 3.6246 1.2890 0.0000
vt 3.5935 1.0054 0.0000
vt 3.5127 1.0054 0.0000
vt 3.4998 1.2890 0.0000
vt 6.6240 -0.0007 0.0000
vt 6.6180 0.3117 0.0000
vt 6.5659 0.3144 0.0000
vt 6.5659 -0.0007 0.0000
vt 6.4959 0.3094 0.0000
vt 6.5016 -0.0007 0.0000
vt 4.5697 1.0009 0.0000
vt 4.5697 1.2684 0.0000
vt 4.6278 1.2629 0.0000
vt 4.6287 1.0009 0.0000
vt 4.5052 1.0009 0.0000
vt 4.4950 1.2627 0.0000
vt 3.5305 1.5758 0.0000
vt 3.5587 1.4888 0.0000
vt 6.5359 0.5695 0.0000
vt 4.5378 1.5633 0.0000
vt 3.6082 1.2225 0.0000
vt 3.5276 1.2362 0.0000
vt 0.8015 0.9523 0.0000
vt 0.9007 0.9523 0.0000
vt 0.8748 0.9074 0.0000
vt 0.8274 0.9074 0.0000
vt 0.9503 0.8664 0.0000
vt 0.8985 0.8664 0.0000
vt 0.7519 0.8664 0.0000
vt 0.8037 0.8664 0.0000
vt 0.7756 0.9971 0.0000
vt 0.9266 0.9971 0.0000
vt 1.0021 0.8664 0.0000
vt 0.7001 0.8664 0.0000
# 36 texture coords

o Corn1
g Corn1
usemtl 01___Default
s 1
f 1/1/1 2/2/2 3/3/3 4/4/4 
f 5/5/5 6/6/6 2/2/2 1/1/1 
f 7/7/7 8/8/8 9/9/9 10/10/10 
f 10/10/10 9/9/9 11/11/11 12/12/12 
f 13/13/13 14/14/14 15/15/15 16/16/16 
f 17/17/17 18/18/18 14/14/14 13/13/13 
f 2/2/2 19/19/19 20/20/20 
f 6/6/6 19/19/19 2/2/2 
f 8/8/8 21/21/21 9/9/9 
f 9/9/9 21/21/21 11/11/11 
f 14/14/14 22/22/22 15/15/15 
f 18/18/18 22/22/22 14/14/14 
f 23/1/23 24/4/24 25/3/25 26/23/26 
f 25/3/25 27/2/27 26/23/26 
f 28/5/28 23/1/23 27/2/27 29/24/29 
f 27/2/27 30/6/30 29/24/29 
f 31/7/31 32/10/32 33/9/33 34/8/34 
f 32/10/32 35/12/35 36/11/36 33/9/33 
f 37/13/37 38/16/38 39/15/39 40/14/40 
f 41/17/41 37/13/37 40/14/40 42/18/42 
f 27/2/27 25/3/25 43/19/43 
f 30/6/30 27/2/27 43/19/43 
f 34/8/34 33/9/33 44/21/44 
f 33/9/33 36/11/36 44/21/44 
f 40/14/40 39/15/39 45/22/45 
f 42/18/42 40/14/40 45/22/45 
f 46/25/46 47/26/47 48/27/48 49/28/49 
f 47/26/47 50/29/50 51/30/51 48/27/48 
f 50/29/50 52/26/52 53/27/53 51/30/51 
f 52/26/52 54/25/54 55/28/55 53/27/53 
f 54/25/54 56/31/56 57/32/57 55/28/55 
f 56/31/56 46/25/46 49/28/49 57/32/57 
f 58/33/58 59/34/59 47/26/47 46/25/46 
f 59/34/59 60/35/60 50/29/50 47/26/47 
f 50/29/50 60/35/60 61/34/61 52/26/52 
f 54/25/54 52/26/52 61/34/61 62/33/62 
f 62/33/62 63/36/63 56/31/56 54/25/54 
f 63/36/63 58/33/58 46/25/46 56/31/56 
f 64/25/64 65/28/65 66/27/66 67/26/67 
f 67/26/67 66/27/66 68/30/68 69/29/69 
f 69/29/69 68/30/68 70/27/70 71/26/71 
f 71/26/71 70/27/70 72/28/72 73/25/73 
f 73/25/73 72/28/72 74/32/74 75/31/75 
f 75/31/75 74/32/74 65/28/65 64/25/64 
f 76/33/76 64/25/64 67/26/67 77/34/77 
f 77/34/77 67/26/67 69/29/69 78/35/78 
f 78/35/78 69/29/69 71/26/71 79/34/79 
f 79/34/79 71/26/71 73/25/73 80/33/80 
f 80/33/80 73/25/73 75/31/75 81/36/81 
f 81/36/81 75/31/75 64/25/64 76/33/76 
f 20/20/20 19/19/19 3/3/3 
f 2/2/2 20/20/20 3/3/3 
f 26/23/26 27/2/27 23/1/23 
f 29/24/29 30/6/30 28/5/28 
# 36 polygons - 18 triangles

